<svg width="48" height="48" viewBox="0 0 48 48" fill="none" xmlns="http://www.w3.org/2000/svg">
<rect width="48" height="48" rx="8" fill="#A4DEFF"/>
<rect x="6.5" y="12.5" width="35" height="19" fill="#6B9F5E" stroke="#FFDD28"/>
<path d="M11 38C11 33.5817 14.5817 30 19 30H22V39H11V38Z" fill="#3C578C"/>
<path d="M26 30H29C33.4183 30 37 33.5817 37 38V39H26V30Z" fill="#3C578C"/>
<rect x="17" y="35" width="1" height="4" fill="#705D30"/>
<rect x="17" y="35" width="1" height="4" fill="black" fill-opacity="0.2"/>
<path d="M14 16.8C14 11.9399 17.9399 8 22.8 8H25.2C30.0601 8 34 11.9399 34 16.8C34 18.015 33.015 19 31.8 19H24H16.2C14.985 19 14 18.015 14 16.8Z" fill="#5A3A23"/>
<rect x="22" y="27" width="4" height="5" fill="#FFE2A0"/>
<circle cx="24" cy="19" r="9" fill="#FFE2A0"/>
<rect x="25" y="17.1772" width="1" height="4" rx="0.5" fill="#3E3E3E"/>
<rect x="22" y="17.1772" width="1" height="4" rx="0.5" fill="#3E3E3E"/>
<path d="M22 22.9981C22 22.6727 22.3906 22.4823 22.6654 22.6567C23.0699 22.9133 23.5864 23.1772 24 23.1772C24.4136 23.1772 24.9301 22.9133 25.3346 22.6567C25.6094 22.4823 26 22.6727 26 22.9981C26 23.1117 25.9503 23.219 25.8603 23.2882C25.5217 23.5486 24.6383 24.1772 24 24.1772C23.3617 24.1772 22.4783 23.5486 22.1397 23.2882C22.0497 23.219 22 23.1117 22 22.9981Z" fill="#FF6565"/>
<path d="M35.0007 20C35.0007 21.1046 33.1046 22 32 22C30.8954 22 31.0007 21.1046 31.0007 20C31.0007 18.8954 31.8962 18 33.0007 18C34.1053 18 35.0007 18.8954 35.0007 20Z" fill="#FFE2A0"/>
<path d="M17 20C17 21.1046 17.1046 22 16 22C14.8954 22 13 21.1046 13 20C13 18.8954 13.8954 18 15 18C16.1046 18 17 18.8954 17 20Z" fill="#FFE2A0"/>
<path d="M15.0386 13.8824C15.0945 13.8304 15.1537 13.7828 15.21 13.7312L18.0562 11.1298C19.0477 10.2236 21.8911 9.77934 23.1257 10.3086C26.4397 11.7291 15.3434 20.1324 14.5018 17.5002C13.7869 15.2643 14.7365 14.1633 15.0386 13.8824Z" fill="#5A3A23"/>
<path d="M22.7605 9.54135C23.252 8.69008 24.3405 8.39842 25.1917 8.8899L32.4757 13.0953C33.3654 13.6089 33.7772 14.7446 33.6921 15.7684C33.6665 16.0766 33.6504 16.4275 33.6504 16.8227C33.6504 19.9825 27.4872 16.4897 23.8161 14.129C22.2784 13.1401 21.8464 11.1247 22.7605 9.54135Z" fill="#5A3A23"/>
<path d="M22 31C22 31 23.219 31.5 24 31.5C24.781 31.5 26 31 26 31V39H22V31Z" fill="white"/>
<rect x="18" y="34" width="13" height="1" fill="#8C743C"/>
<rect x="18" y="34" width="13" height="1" fill="black" fill-opacity="0.2"/>
<rect x="18" y="35" width="13" height="1" fill="#8C743C"/>
<rect x="18" y="35" width="13" height="1" fill="white" fill-opacity="0.5"/>
<rect x="18" y="36" width="13" height="3" fill="#8C743C"/>
</svg>
