<svg width="32" height="32" viewBox="0 0 32 32" fill="none" xmlns="http://www.w3.org/2000/svg">
<rect width="32" height="32" rx="8" fill="#EF4452"/>
<path fill-rule="evenodd" clip-rule="evenodd" d="M21.9678 21.9682C22.5536 21.3824 22.5536 20.4326 21.9678 19.8469L18.4331 16.3122L21.968 12.7773C22.5537 12.1916 22.5537 11.2418 21.968 10.656C21.3822 10.0702 20.4324 10.0702 19.8466 10.656L16.3118 14.1909L12.7771 10.6562C12.1913 10.0704 11.2416 10.0704 10.6558 10.6562C10.07 11.242 10.07 12.1917 10.6558 12.7775L14.1905 16.3122L10.656 19.8467C10.0702 20.4325 10.0702 21.3822 10.656 21.968C11.2418 22.5538 12.1915 22.5538 12.7773 21.968L16.3118 18.4335L19.8465 21.9682C20.4322 22.554 21.382 22.554 21.9678 21.9682Z" fill="white"/>
</svg>
