<svg width="32" height="32" viewBox="0 0 32 32" fill="none" xmlns="http://www.w3.org/2000/svg">
<rect width="32" height="32" rx="8" fill="#AFAFAF"/>
<rect x="8" y="12" width="16" height="12" rx="2" fill="#6A6A6A"/>
<path d="M21 12C21 10.6739 20.4732 9.40215 19.5355 8.46447C18.5979 7.52678 17.3261 7 16 7C14.6739 7 13.4021 7.52678 12.4645 8.46447C11.5268 9.40215 11 10.6739 11 12L13.5 12C13.5 11.337 13.7634 10.7011 14.2322 10.2322C14.7011 9.76339 15.337 9.5 16 9.5C16.663 9.5 17.2989 9.76339 17.7678 10.2322C18.2366 10.7011 18.5 11.337 18.5 12H21Z" fill="#6A6A6A"/>
<circle cx="16" cy="18" r="2" fill="#505050"/>
</svg>
