<svg width="32" height="32" viewBox="0 0 32 32" fill="none" xmlns="http://www.w3.org/2000/svg">
<rect width="32" height="32" rx="8" fill="#007FF2"/>
<path d="M4.13622 21H5.81622V17.448C5.81622 16.416 5.67222 15.3 5.58822 14.352H5.64822L6.54822 16.248L9.11622 21H10.9282V12.12H9.23622V15.66C9.23622 16.668 9.38022 17.856 9.47622 18.78H9.41622L8.51622 16.86L5.93622 12.12H4.13622V21ZM12.4045 21H17.9845V19.512H14.1805V17.148H17.2885V15.648H14.1805V13.596H17.8525V12.12H12.4045V21ZM19.9073 21H22.0793L23.0513 16.608C23.1833 15.924 23.3153 15.228 23.4353 14.556H23.4833C23.5913 15.228 23.7113 15.924 23.8673 16.608L24.8513 21H27.0713L28.7153 12.12H27.0353L26.3153 16.452C26.1953 17.388 26.0513 18.336 25.9313 19.296H25.8713C25.6673 18.336 25.4993 17.376 25.3073 16.452L24.2753 12.12H22.7513L21.7313 16.452C21.5393 17.388 21.3473 18.336 21.1673 19.296H21.1193C20.9753 18.336 20.8433 17.388 20.6993 16.452L20.0033 12.12H18.1913L19.9073 21Z" fill="white"/>
</svg>
