<svg width="48" height="48" viewBox="0 0 48 48" fill="none" xmlns="http://www.w3.org/2000/svg">
<rect width="48" height="48" rx="8" fill="#FFC8A2"/>
<rect x="6.5" y="12.5" width="35" height="19" fill="#6B9F5E" stroke="#FFDD28"/>
<path d="M11 38C11 33.5817 14.5817 30 19 30H22V39H11V38Z" fill="#DC7D70"/>
<path d="M26 30H29C33.4183 30 37 33.5817 37 38V39H26V30Z" fill="#DC7D70"/>
<rect x="17" y="35" width="1" height="4" fill="#5AAF86"/>
<rect x="17" y="35" width="1" height="4" fill="black" fill-opacity="0.2"/>
<path d="M13 19C13 12.9249 17.9249 8 24 8C30.0751 8 35 12.9249 35 19V23.7201C35 25.6194 33.6417 27.247 31.773 27.5867L24 29L16.227 27.5867C14.3583 27.247 13 25.6194 13 23.7201V19Z" fill="#7B3923"/>
<rect x="22" y="27" width="4" height="5" fill="#FFE2A0"/>
<circle cx="24" cy="19" r="9" fill="#FFE2A0"/>
<rect x="25" y="17" width="1" height="4" rx="0.5" fill="#3E3E3E"/>
<rect x="22" y="17" width="1" height="4" rx="0.5" fill="#3E3E3E"/>
<path d="M22 22.8209C22 22.4954 22.3906 22.305 22.6654 22.4794C23.0699 22.7361 23.5864 23 24 23C24.4136 23 24.9301 22.7361 25.3346 22.4794C25.6094 22.305 26 22.4954 26 22.8209C26 22.9344 25.9503 23.0417 25.8603 23.1109C25.5217 23.3713 24.6383 24 24 24C23.3617 24 22.4783 23.3713 22.1397 23.1109C22.0497 23.0417 22 22.9344 22 22.8209Z" fill="#FF6565"/>
<path d="M14.9273 15.2257C14.9538 15.1924 14.9829 15.1615 15.011 15.1295L18.8483 10.7692C19.6084 9.90553 20.6009 8.91401 21.6682 9.34364C21.9023 9.43788 22.1678 9.54838 22.4687 9.67737C25.7827 11.0979 14.969 22.1774 14.4689 19.1774C14.0309 16.5504 14.7434 15.4569 14.9273 15.2257Z" fill="#7B3923"/>
<path d="M22.879 9.5763C23.3816 8.70574 24.4948 8.40746 25.3654 8.91008L32.8708 13.2433C33.6461 13.6909 34.0311 14.601 33.9189 15.4891C33.8473 16.0557 33.7891 16.7478 33.7891 17.5C33.7891 20.6889 27.5118 16.762 23.854 14.203C22.3616 13.159 21.9683 11.1537 22.879 9.5763Z" fill="#7B3923"/>
<path d="M22 31C22 31 23.219 31.5 24 31.5C24.781 31.5 26 31 26 31V39H22V31Z" fill="white"/>
<rect x="18" y="34" width="13" height="1" fill="#70DBA7"/>
<rect x="18" y="34" width="13" height="1" fill="black" fill-opacity="0.2"/>
<path d="M18 35H31V36H18V35Z" fill="#70DBA7"/>
<path d="M18 35H31V36H18V35Z" fill="white" fill-opacity="0.5"/>
<rect x="18" y="36" width="13" height="3" fill="#70DBA7"/>
</svg>
