<svg width="400" height="400" viewBox="0 0 400 400" fill="none" xmlns="http://www.w3.org/2000/svg">
<path fill-rule="evenodd" clip-rule="evenodd" d="M76.3411 116.481C76.3408 116.481 76.3403 116.481 76.34 116.481L62.6258 130.196C58.7205 134.101 58.7205 140.432 62.6258 144.338L152.413 234.125C156.318 238.03 162.65 238.03 166.555 234.125L173.199 227.481C177.104 223.576 177.104 217.244 173.199 213.339L104.199 144.339C100.293 140.434 100.293 134.102 104.199 130.197L173.203 61.1925C177.108 57.2873 177.108 50.9556 173.203 47.0504L166.559 40.4066C162.654 36.5014 156.322 36.5014 152.417 40.4066L76.3422 116.481C76.3419 116.482 76.3414 116.482 76.3411 116.481V116.481Z" fill="#1FDE00"/>
<path fill-rule="evenodd" clip-rule="evenodd" d="M333.64 144.878C336.401 140.095 334.762 133.979 329.979 131.217L313.183 121.52C313.182 121.52 313.182 121.52 313.182 121.52V121.52C313.182 121.52 313.182 121.52 313.182 121.52L220.011 67.7276C215.228 64.9661 209.112 66.6049 206.35 71.3878L201.652 79.5247C198.891 84.3077 200.53 90.4236 205.313 93.185L289.824 141.977C294.607 144.739 296.245 150.855 293.484 155.638L244.693 240.146C241.932 244.929 243.57 251.045 248.353 253.807L256.49 258.504C261.273 261.266 267.389 259.627 270.15 254.844L333.64 144.878Z" fill="#1FDE00"/>
<circle cx="258.384" cy="292.017" r="73.4893" fill="#A286FF"/>
<path fill-rule="evenodd" clip-rule="evenodd" d="M238.05 211.345C202.669 218.698 176.083 250.051 176.083 287.613C176.083 300.684 179.303 313.003 184.992 323.82C182.071 324.173 179.097 324.355 176.081 324.355C135.494 324.355 102.592 291.452 102.592 250.865C102.592 210.278 135.494 177.376 176.081 177.376C202.12 177.376 224.996 190.919 238.05 211.345Z" fill="#A286FF"/>
</svg>
