<svg width="122" height="36" viewBox="0 0 122 36" fill="none" xmlns="http://www.w3.org/2000/svg">
<rect x="40" y="1" width="12" height="4" rx="2" fill="white"/>
<rect x="44" y="1" width="16" height="4" rx="2" transform="rotate(90 44 1)" fill="white"/>
<rect x="52" y="17" width="12" height="4" rx="2" transform="rotate(-180 52 17)" fill="white"/>
<rect x="96" y="20" width="12" height="4" rx="2" fill="#C8B7FF"/>
<rect x="96" y="26" width="12" height="4" rx="2" fill="#C8B7FF"/>
<path d="M98 20C99.1046 20 100 20.8954 100 22L100 34C100 35.1046 99.1046 36 98 36V36C96.8954 36 96 35.1046 96 34L96 22C96 20.8954 96.8954 20 98 20V20Z" fill="#C8B7FF"/>
<rect x="108" y="20" width="10" height="4" rx="2" transform="rotate(90 108 20)" fill="#C8B7FF"/>
<path d="M105 30L107.375 32.8499C108.417 34.1008 107.528 36 105.9 36V36C105.33 36 104.789 35.7468 104.424 35.309L100 30L105 30Z" fill="#C8B7FF"/>
<rect x="82" y="20" width="12" height="4" rx="2" fill="#C8B7FF"/>
<rect x="82" y="26" width="12" height="4" rx="2" fill="#C8B7FF"/>
<path d="M84 20C85.1046 20 86 20.8954 86 22L86 34C86 35.1046 85.1046 36 84 36V36C82.8954 36 82 35.1046 82 34L82 22C82 20.8954 82.8954 20 84 20V20Z" fill="#C8B7FF"/>
<rect x="94" y="20" width="10" height="4" rx="2" transform="rotate(90 94 20)" fill="#C8B7FF"/>
<path d="M91 30L93.375 32.8499C94.4174 34.1008 93.5279 36 91.8995 36V36C91.3296 36 90.789 35.7468 90.4241 35.309L86 30L91 30Z" fill="#C8B7FF"/>
<rect x="110" y="26" width="12" height="4" rx="2" fill="#C8B7FF"/>
<path d="M120 20C121.105 20 122 20.8954 122 22L122 28C122 29.1046 121.105 30 120 30V30C118.895 30 118 29.1046 118 28L118 22C118 20.8954 118.895 20 120 20V20Z" fill="#C8B7FF"/>
<path d="M112 20C113.105 20 114 20.8954 114 22L114 28C114 29.1046 113.105 30 112 30V30C110.895 30 110 29.1046 110 28L110 22C110 20.8954 110.895 20 112 20V20Z" fill="#C8B7FF"/>
<rect x="118" y="26" width="10" height="4" rx="2" transform="rotate(90 118 26)" fill="#C8B7FF"/>
<rect x="63" y="1" width="12" height="4" rx="2" fill="white"/>
<rect x="67" y="1" width="16" height="4" rx="2" transform="rotate(90 67 1)" fill="white"/>
<rect x="75" y="1" width="16" height="4" rx="2" transform="rotate(90 75 1)" fill="white"/>
<rect x="75" y="17" width="12" height="4" rx="2" transform="rotate(-180 75 17)" fill="white"/>
<rect x="54" y="20" width="12" height="4" rx="2" fill="#C8B7FF"/>
<rect x="58" y="20" width="16" height="4" rx="2" transform="rotate(90 58 20)" fill="#C8B7FF"/>
<rect x="66" y="20" width="16" height="4" rx="2" transform="rotate(90 66 20)" fill="#C8B7FF"/>
<rect x="66" y="30" width="12" height="4" rx="2" transform="rotate(-180 66 30)" fill="#C8B7FF"/>
<path d="M87 3C87 1.89543 87.8954 1 89 1H95.7639C96.5215 1 97.214 1.428 97.5528 2.10557V2.10557C98.2177 3.43537 97.2507 5 95.7639 5H89C87.8954 5 87 4.10457 87 3V3Z" fill="white"/>
<rect x="91" y="1" width="16" height="4" rx="1" transform="rotate(90 91 1)" fill="white"/>
<path d="M98.4142 2.41421C98.7893 2.78929 99 3.29799 99 3.82843L99 14.1716C99 14.702 98.7893 15.2107 98.4142 15.5858L97.5858 16.4142C97.2107 16.7893 96.702 17 96.1716 17L95 17L95 1L96.1716 1C96.702 1 97.2107 1.21071 97.5858 1.58579L98.4142 2.41421Z" fill="white"/>
<path d="M97.5528 15.8944C97.214 16.572 96.5215 17 95.7639 17L89 17C87.8954 17 87 16.1046 87 15V15C87 13.8954 87.8954 13 89 13L95.7639 13C97.2507 13 98.2177 14.5646 97.5528 15.8944V15.8944Z" fill="white"/>
<path d="M40 22C40 20.8954 40.8954 20 42 20H48.7639C49.5215 20 50.214 20.428 50.5528 21.1056V21.1056C51.2177 22.4354 50.2507 24 48.7639 24H42C40.8954 24 40 23.1046 40 22V22Z" fill="#C8B7FF"/>
<path d="M40 28C40 26.8954 40.8954 26 42 26H48.7639C49.5215 26 50.214 26.428 50.5528 27.1056V27.1056C51.2177 28.4354 50.2507 30 48.7639 30H42C40.8954 30 40 29.1046 40 28V28Z" fill="#C8B7FF"/>
<rect x="44" y="20" width="16" height="4" rx="1" transform="rotate(90 44 20)" fill="#C8B7FF"/>
<path d="M51.4142 21.4142C51.7893 21.7893 52 22.298 52 22.8284L52 32L52 34C52 35.1046 51.1046 36 50 36V36C48.8954 36 48 35.1046 48 34L48 20L49.1716 20C49.702 20 50.2107 20.2107 50.5858 20.5858L51.4142 21.4142Z" fill="#C8B7FF"/>
<path d="M52 34C52 35.1046 51.1046 36 50 36L42 36C40.8954 36 40 35.1046 40 34V34C40 32.8954 40.8954 32 42 32L50 32C51.1046 32 52 32.8954 52 34V34Z" fill="#C8B7FF"/>
<rect x="110" y="1" width="12" height="4" rx="2" fill="white"/>
<rect x="110" y="7" width="12" height="4" rx="2" fill="white"/>
<rect x="114" y="1" width="16" height="4" rx="2" transform="rotate(90 114 1)" fill="white"/>
<rect x="122" y="17" width="12" height="4" rx="2" transform="rotate(-180 122 17)" fill="white"/>
<rect x="68" y="20" width="12" height="4" rx="2" fill="#C8B7FF"/>
<rect x="68" y="26" width="12" height="4" rx="2" fill="#C8B7FF"/>
<rect x="72" y="20" width="16" height="4" rx="2" transform="rotate(90 72 20)" fill="#C8B7FF"/>
<rect x="80" y="36" width="12" height="4" rx="2" transform="rotate(-180 80 36)" fill="#C8B7FF"/>
<path fill-rule="evenodd" clip-rule="evenodd" d="M5.0003 12.3532C5.00013 12.3534 5.00013 12.3536 5.0003 12.3538V12.3538L6.87073 14.2242L13.4186 20.7721C13.9352 21.2887 14.7727 21.2887 15.2893 20.7721V20.7721C15.8059 20.2555 15.8059 19.418 15.2893 18.9014L12.4829 16.095C10.4166 14.0286 10.4166 10.6784 12.4829 8.61206L15.289 5.80596C15.8056 5.28937 15.8056 4.45181 15.289 3.93523V3.93523C14.7724 3.41864 13.9349 3.41864 13.4183 3.93523L5.0003 12.3532Z" fill="#1FDE00"/>
<path fill-rule="evenodd" clip-rule="evenodd" d="M29.8161 13.4053C30.1814 12.7727 29.9646 11.9636 29.332 11.5984L28.1864 10.937C28.1864 10.937 28.1864 10.937 28.1863 10.937V10.937C28.1863 10.937 28.1863 10.937 28.1863 10.937L20.1671 6.30717C19.5344 5.94189 18.7254 6.15867 18.3601 6.79135V6.79135C17.9948 7.42404 18.2116 8.23306 18.8443 8.59834L22.2812 10.5826C24.8119 12.0438 25.679 15.2798 24.2179 17.8105L22.2337 21.2472C21.8685 21.8799 22.0852 22.6889 22.7179 23.0542V23.0542C23.3506 23.4195 24.1596 23.2027 24.5249 22.57L29.8161 13.4053Z" fill="#1FDE00"/>
<circle cx="23.2547" cy="26.2815" r="6.61403" fill="#A286FF"/>
<path fill-rule="evenodd" clip-rule="evenodd" d="M21.4245 19.0209C18.2401 19.6825 15.8472 22.5044 15.8472 25.8851C15.8472 27.0615 16.137 28.1702 16.649 29.1439C16.3863 29.1756 16.1188 29.1919 15.8474 29.1919C12.1946 29.1919 9.2334 26.2307 9.2334 22.5779C9.2334 18.9251 12.1946 15.9639 15.8474 15.9639C18.1909 15.9639 20.2497 17.1826 21.4245 19.0209Z" fill="#A286FF"/>
</svg>
