<svg width="48" height="48" viewBox="0 0 48 48" fill="none" xmlns="http://www.w3.org/2000/svg">
<rect width="48" height="48" rx="16" fill="#E3E3E3"/>
<path d="M15.9305 38.0357L15.0364 13H32.9636L32.0695 38.0357C32.0503 38.5737 31.6085 39 31.0702 39H16.9298C16.3915 39 15.9497 38.5737 15.9305 38.0357Z" fill="#E3E3E3" stroke="#3E3E3E" stroke-width="2"/>
<rect x="0.5" y="-0.5" width="23" height="1" rx="0.5" transform="matrix(1 0 0 -1 12 13)" stroke="#3E3E3E"/>
<path fill-rule="evenodd" clip-rule="evenodd" d="M23 12H21V10C21 8.89543 21.8954 8 23 8H25C26.1046 8 27 8.89543 27 10V12H25V10.5C25 10.2239 24.7761 10 24.5 10H23.5C23.2239 10 23 10.2239 23 10.5V12Z" fill="#3E3E3E"/>
<rect x="19.5" y="18.5" width="1" height="17" rx="0.5" fill="#E3E3E3" stroke="#3E3E3E"/>
<rect x="23.5" y="18.5" width="1" height="17" rx="0.5" fill="#E3E3E3" stroke="#3E3E3E"/>
<rect x="27.5" y="18.5" width="1" height="17" rx="0.5" fill="#E3E3E3" stroke="#3E3E3E"/>
</svg>
