<svg width="399" height="170" viewBox="0 0 399 170" fill="none" xmlns="http://www.w3.org/2000/svg">
<rect width="58.2857" height="19.4286" rx="9.71429" fill="white"/>
<rect x="19.4287" width="77.7143" height="19.4286" rx="9.71428" transform="rotate(90 19.4287 0)" fill="white"/>
<rect x="58.2861" y="77.7144" width="58.2857" height="19.4286" rx="9.71428" transform="rotate(-180 58.2861 77.7144)" fill="white"/>
<rect x="272" y="92.2856" width="58.2857" height="19.4286" rx="9.71429" fill="#C8B7FF"/>
<rect x="272" y="121.428" width="58.2857" height="19.4286" rx="9.71429" fill="#C8B7FF"/>
<path d="M281.714 92.2856C287.079 92.2856 291.429 96.6349 291.429 102L291.429 160.286C291.429 165.651 287.079 170 281.714 170V170C276.349 170 272 165.651 272 160.286L272 102C272 96.6349 276.349 92.2856 281.714 92.2856V92.2856Z" fill="#C8B7FF"/>
<rect x="330.286" y="92.2856" width="48.5714" height="19.4286" rx="9.71428" transform="rotate(90 330.286 92.2856)" fill="#C8B7FF"/>
<path d="M315.714 140.857L327.25 154.7C332.313 160.776 327.992 170 320.083 170V170C317.315 170 314.69 168.77 312.917 166.644L291.429 140.857L315.714 140.857Z" fill="#C8B7FF"/>
<rect x="204" y="92.2856" width="58.2857" height="19.4286" rx="9.71429" fill="#C8B7FF"/>
<rect x="204" y="121.428" width="58.2857" height="19.4286" rx="9.71429" fill="#C8B7FF"/>
<path d="M213.714 92.2856C219.079 92.2856 223.429 96.6349 223.429 102L223.429 160.286C223.429 165.651 219.079 170 213.714 170V170C208.349 170 204 165.651 204 160.286L204 102C204 96.6349 208.349 92.2856 213.714 92.2856V92.2856Z" fill="#C8B7FF"/>
<rect x="262.286" y="92.2856" width="48.5714" height="19.4286" rx="9.71428" transform="rotate(90 262.286 92.2856)" fill="#C8B7FF"/>
<path d="M247.714 140.857L259.25 154.7C264.313 160.776 259.992 170 252.083 170V170C249.315 170 246.69 168.77 244.917 166.644L223.429 140.857L247.714 140.857Z" fill="#C8B7FF"/>
<rect x="340" y="121.428" width="58.2857" height="19.4286" rx="9.71429" fill="#C8B7FF"/>
<path d="M388.572 92.2856C393.937 92.2856 398.286 96.6349 398.286 102L398.286 131.143C398.286 136.508 393.937 140.857 388.572 140.857V140.857C383.207 140.857 378.858 136.508 378.858 131.143L378.858 102C378.858 96.6349 383.207 92.2856 388.572 92.2856V92.2856Z" fill="#C8B7FF"/>
<path d="M349.714 92.2856C355.079 92.2856 359.429 96.6349 359.429 102L359.429 131.143C359.429 136.508 355.079 140.857 349.714 140.857V140.857C344.349 140.857 340 136.508 340 131.143L340 102C340 96.6349 344.349 92.2856 349.714 92.2856V92.2856Z" fill="#C8B7FF"/>
<rect x="378.857" y="121.428" width="48.5714" height="19.4286" rx="9.71428" transform="rotate(90 378.857 121.428)" fill="#C8B7FF"/>
<rect x="111.715" width="58.2857" height="19.4286" rx="9.71429" fill="white"/>
<rect x="131.144" width="77.7143" height="19.4286" rx="9.71428" transform="rotate(90 131.144 0)" fill="white"/>
<rect x="170.001" width="77.7143" height="19.4286" rx="9.71428" transform="rotate(90 170.001 0)" fill="white"/>
<rect x="170.001" y="77.7144" width="58.2857" height="19.4286" rx="9.71428" transform="rotate(-180 170.001 77.7144)" fill="white"/>
<rect x="68" y="92.2856" width="58.2857" height="19.4286" rx="9.71429" fill="#C8B7FF"/>
<rect x="87.4287" y="92.2856" width="77.7143" height="19.4286" rx="9.71428" transform="rotate(90 87.4287 92.2856)" fill="#C8B7FF"/>
<rect x="126.286" y="92.2856" width="77.7143" height="19.4286" rx="9.71428" transform="rotate(90 126.286 92.2856)" fill="#C8B7FF"/>
<rect x="126.286" y="140.857" width="58.2857" height="19.4286" rx="9.71428" transform="rotate(-180 126.286 140.857)" fill="#C8B7FF"/>
<path d="M228.285 9.71429C228.285 4.34923 232.634 0 237.999 0H270.853C274.532 0 277.896 2.07888 279.542 5.36993V5.36993C282.771 11.829 278.074 19.4286 270.853 19.4286H237.999C232.634 19.4286 228.285 15.0793 228.285 9.71429V9.71429Z" fill="white"/>
<rect x="247.714" width="77.7143" height="19.4286" rx="4.85714" transform="rotate(90 247.714 0)" fill="white"/>
<path d="M283.726 6.86904C285.548 8.69082 286.571 11.1617 286.571 13.7381L286.571 63.9762C286.571 66.5526 285.548 69.0235 283.726 70.8452L279.702 74.869C277.88 76.6908 275.41 77.7143 272.833 77.7143L267.143 77.7143L267.143 -4.24625e-07L272.833 -4.24625e-07C275.41 -4.24625e-07 277.88 1.02347 279.702 2.84525L283.726 6.86904Z" fill="white"/>
<path d="M279.542 72.3444C277.896 75.6355 274.533 77.7144 270.853 77.7144L238 77.7144C232.635 77.7144 228.286 73.3651 228.286 68.0001V68.0001C228.286 62.635 232.635 58.2858 238 58.2858L270.853 58.2858C278.075 58.2858 282.771 65.8854 279.542 72.3444V72.3444Z" fill="white"/>
<path d="M0 102C0 96.6349 4.34923 92.2856 9.71428 92.2856H42.5677C46.2472 92.2856 49.6109 94.3645 51.2564 97.6556V97.6556C54.4859 104.115 49.7891 111.714 42.5677 111.714H9.71428C4.34923 111.714 0 107.365 0 102V102Z" fill="#C8B7FF"/>
<path d="M0 131.143C0 125.778 4.34923 121.428 9.71428 121.428H42.5677C46.2472 121.428 49.6109 123.507 51.2564 126.798V126.798C54.4859 133.257 49.7891 140.857 42.5677 140.857H9.71428C4.34923 140.857 0 136.508 0 131.143V131.143Z" fill="#C8B7FF"/>
<rect x="19.4287" y="92.2856" width="77.7143" height="19.4286" rx="4.85714" transform="rotate(90 19.4287 92.2856)" fill="#C8B7FF"/>
<path d="M55.4409 99.1547C57.2627 100.976 58.2861 103.447 58.2861 106.024L58.2861 150.571L58.2861 160.286C58.2861 165.651 53.9369 170 48.5718 170V170C43.2068 170 38.8576 165.651 38.8576 160.286L38.8576 92.2856L44.5481 92.2856C47.1244 92.2856 49.5953 93.3091 51.4171 95.1309L55.4409 99.1547Z" fill="#C8B7FF"/>
<path d="M58.2861 160.286C58.2861 165.651 53.9369 170 48.5719 170L9.71469 170C4.34964 170 0.00041809 165.651 0.000418559 160.286V160.286C0.000419028 154.921 4.34965 150.571 9.7147 150.571L48.5719 150.571C53.9369 150.571 58.2861 154.921 58.2861 160.286V160.286Z" fill="#C8B7FF"/>
<rect x="340" width="58.2857" height="19.4286" rx="9.71429" fill="white"/>
<rect x="340" y="29.1428" width="58.2857" height="19.4286" rx="9.71429" fill="white"/>
<rect x="359.429" width="77.7143" height="19.4286" rx="9.71428" transform="rotate(90 359.429 0)" fill="white"/>
<rect x="398.286" y="77.7144" width="58.2857" height="19.4286" rx="9.71429" transform="rotate(-180 398.286 77.7144)" fill="white"/>
<rect x="136" y="92.2856" width="58.2857" height="19.4286" rx="9.71429" fill="#C8B7FF"/>
<rect x="136" y="121.428" width="58.2857" height="19.4286" rx="9.71429" fill="#C8B7FF"/>
<rect x="155.429" y="92.2856" width="77.7143" height="19.4286" rx="9.71428" transform="rotate(90 155.429 92.2856)" fill="#C8B7FF"/>
<rect x="194.286" y="170" width="58.2857" height="19.4286" rx="9.71429" transform="rotate(-180 194.286 170)" fill="#C8B7FF"/>
</svg>
